<svg width="48" height="48" viewBox="0 0 48 48" fill="none" xmlns="http://www.w3.org/2000/svg">
<path d="M48 24C48 10.7452 37.2548 0 24 0C10.7452 0 0 10.7452 0 24C0 37.2548 10.7452 48 24 48C37.2548 48 48 37.2548 48 24Z" fill="white" fill-opacity="0.1"/>
<path d="M47.5 24C47.5 11.0213 36.9787 0.5 24 0.5C11.0213 0.5 0.5 11.0213 0.5 24C0.5 36.9787 11.0213 47.5 24 47.5C36.9787 47.5 47.5 36.9787 47.5 24Z" stroke="white" stroke-opacity="0.1"/>
<path d="M33.1522 13.6182H14.8C13.9896 13.6182 13.3223 14.3134 13.3223 15.1476V32.8985C13.3223 33.7328 13.9896 34.3816 14.8 34.3816H33.1522C33.9625 34.3816 34.6776 33.7328 34.6776 32.8985V15.1476C34.6776 14.3134 33.9625 13.6182 33.1522 13.6182ZM19.7575 31.4154H16.6114V21.5435H19.7575V31.4154ZM18.1844 20.1531C17.1357 20.1531 16.3254 19.3652 16.3254 18.3919C16.3254 17.4186 17.1357 16.5844 18.1844 16.5844C19.1854 16.5844 19.9958 17.4186 19.9958 18.3919C19.9958 19.3652 19.1854 20.1531 18.1844 20.1531ZM31.6268 31.4154H28.433V26.5953C28.433 25.483 28.433 23.9999 26.8123 23.9999C25.1439 23.9999 24.9056 25.2513 24.9056 26.549V31.4154H21.7595V21.5435H24.7626V22.8876H24.8103C25.2393 22.0997 26.288 21.2654 27.8134 21.2654C31.0071 21.2654 31.6268 23.351 31.6268 25.9928V31.4154Z" fill="white"/>
</svg>
