<svg width="22" height="21" viewBox="0 0 22 21" fill="none" xmlns="http://www.w3.org/2000/svg">
<path d="M19.8299 0H1.4777C0.6673 0 0 0.6952 0 1.5294V19.2803C0 20.1146 0.6673 20.7634 1.4777 20.7634H19.8299C20.6402 20.7634 21.3553 20.1146 21.3553 19.2803V1.5294C21.3553 0.6952 20.6402 0 19.8299 0ZM6.4352 17.7972H3.2891V7.9253H6.4352V17.7972ZM4.8621 6.5349C3.8134 6.5349 3.0031 5.747 3.0031 4.7737C3.0031 3.8004 3.8134 2.9662 4.8621 2.9662C5.8631 2.9662 6.6735 3.8004 6.6735 4.7737C6.6735 5.747 5.8631 6.5349 4.8621 6.5349ZM18.3045 17.7972H15.1107V12.9771C15.1107 11.8648 15.1107 10.3817 13.49 10.3817C11.8216 10.3817 11.5833 11.6331 11.5833 12.9308V17.7972H8.4372V7.9253H11.4403V9.2694H11.488C11.917 8.4815 12.9657 7.6472 14.4911 7.6472C17.6848 7.6472 18.3045 9.7328 18.3045 12.3746V17.7972Z" fill="white"/>
</svg>
