<svg width="27" height="18" viewBox="0 0 27 18" fill="none" xmlns="http://www.w3.org/2000/svg">
<path d="M25.5024 2.8271C25.2164 1.7148 24.3107 0.8342 23.2143 0.5561C21.1646 -1.19209e-07 13.061 0 13.061 0C13.061 0 4.9098 -1.19209e-07 2.8601 0.5561C1.7637 0.8342 0.858 1.7148 0.572 2.8271C-4.76837e-07 4.7737 0 8.9449 0 8.9449C0 8.9449 -4.76837e-07 13.0698 0.572 15.0627C0.858 16.1751 1.7637 17.0093 2.8601 17.2874C4.9098 17.7972 13.061 17.7972 13.061 17.7972C13.061 17.7972 21.1646 17.7972 23.2143 17.2874C24.3107 17.0093 25.2164 16.1751 25.5024 15.0627C26.0744 13.0698 26.0744 8.9449 26.0744 8.9449C26.0744 8.9449 26.0744 4.7737 25.5024 2.8271ZM10.3916 12.699V5.1908L17.1605 8.9449L10.3916 12.699Z" fill="white"/>
</svg>
